<svg width="97" height="102" viewBox="0 0 97 102" fill="none" xmlns="http://www.w3.org/2000/svg">
<g clip-path="url(#clip0_5_3)">
<path d="M40.6172 54.6133C40.9297 54.6133 41.0859 54.8672 41.0859 55.375C41.0859 55.8698 40.9753 56.7292 40.7539 57.9531C40.5846 58.7734 39.6471 59.9453 37.9414 61.4688C35.8841 63.2917 33.625 64.5938 31.1641 65.375C29.6797 65.8438 28.2279 66.0781 26.8086 66.0781C25.4023 66.0781 24.1133 65.4857 22.9414 64.3008C21.7826 63.1029 21.2031 61.6901 21.2031 60.0625C21.2031 58.4219 21.5286 56.7292 22.1797 54.9844C22.8438 53.2266 23.7292 51.5534 24.8359 49.9648C25.9557 48.3633 27.2708 46.8268 28.7812 45.3555C30.3047 43.8841 31.8867 42.6081 33.5273 41.5273C35.168 40.4466 36.8867 39.5872 38.6836 38.9492C40.4805 38.3112 42.1862 37.9922 43.8008 37.9922C45.0768 37.9922 46.1641 38.4544 47.0625 39.3789C47.5312 39.8737 47.7656 40.4987 47.7656 41.2539C47.7656 41.9961 47.401 42.9401 46.6719 44.0859C45.9427 45.2188 45.0768 46.2539 44.0742 47.1914C43.0846 48.1289 42.056 48.9232 40.9883 49.5742C39.9336 50.2253 39.0872 50.5508 38.4492 50.5508C37.8112 50.5508 37.2643 50.3555 36.8086 49.9648C36.3529 49.5612 36.125 49.2031 36.125 48.8906C36.125 48.5781 36.1901 48.2331 36.3203 47.8555C36.4635 47.4779 36.6393 47.2891 36.8477 47.2891C36.7956 47.3542 36.7695 47.4193 36.7695 47.4844C36.7695 47.6406 36.9909 47.7188 37.4336 47.7188C37.8893 47.7188 38.6445 47.3216 39.6992 46.5273C40.7539 45.7331 41.7044 44.8411 42.5508 43.8516C43.4102 42.862 43.8398 42.1198 43.8398 41.625C43.8398 41.2865 43.612 41.1172 43.1562 41.1172C41.9323 41.1172 40.2396 41.6901 38.0781 42.8359C35.9297 43.9688 33.8724 45.4336 31.9062 47.2305C29.9401 49.0273 28.2279 51.1628 26.7695 53.6367C25.3242 56.0977 24.6016 58.3112 24.6016 60.2773C24.6016 61.0977 24.8164 61.7552 25.2461 62.25C25.6888 62.7448 26.3594 62.9922 27.2578 62.9922C28.1693 62.9922 29.2435 62.7318 30.4805 62.2109C31.7174 61.6901 32.8893 61.0521 33.9961 60.2969C35.1159 59.5417 36.1706 58.7669 37.1602 57.9727C38.1497 57.1784 38.9375 56.4818 39.5234 55.8828C40.1224 55.2839 40.4284 54.9258 40.4414 54.8086C40.4544 54.6784 40.513 54.6133 40.6172 54.6133ZM53.2539 45.9414C53.4492 45.9414 53.5469 46.0521 53.5469 46.2734C53.5469 46.3516 53.5143 46.4232 53.4492 46.4883C52.3555 47.582 51.0924 48.1289 49.6602 48.1289C49.3216 48.1289 48.944 47.9401 48.5273 47.5625C48.1107 47.1719 47.9023 46.612 47.9023 45.8828C47.9023 45.1536 48.3451 44.3464 49.2305 43.4609C50.1159 42.5625 51.3464 41.7161 52.9219 40.9219C54.5104 40.1146 56.4896 39.3984 58.8594 38.7734C61.2292 38.1484 63.3581 37.8359 65.2461 37.8359C67.1341 37.8359 68.6836 37.9922 69.8945 38.3047C71.1055 38.6042 72.0495 38.9818 72.7266 39.4375C73.4167 39.8802 73.9831 40.3815 74.4258 40.9414C75.168 41.8789 75.5391 42.8359 75.5391 43.8125C75.5391 44.776 75.2266 45.7721 74.6016 46.8008C73.9766 47.8294 73.1628 48.7474 72.1602 49.5547C71.1706 50.349 70.0312 51.0911 68.7422 51.7812C66.3333 53.0573 63.7552 53.9948 61.0078 54.5938C61.4766 55.0755 62.4661 56.2865 63.9766 58.2266C65.5 60.1536 66.8867 61.7682 68.1367 63.0703C69.3997 64.3724 70.3763 65.0234 71.0664 65.0234L71.7109 64.7891C71.8542 64.7891 71.9258 64.8477 71.9258 64.9648C71.9258 65.069 71.6849 65.388 71.2031 65.9219C70.7344 66.4427 70.3242 66.8398 69.9727 67.1133C69.6211 67.3867 69.1393 67.5234 68.5273 67.5234C67.9284 67.5234 67.2448 67.2305 66.4766 66.6445C65.7083 66.0586 64.8685 65.2318 63.957 64.1641C63.0456 63.0964 62.2253 62.0938 61.4961 61.1562C60.7669 60.2057 59.9336 59.0924 58.9961 57.8164C58.0586 56.5273 57.4141 55.6549 57.0625 55.1992C56.9323 55.4076 56.6003 55.9284 56.0664 56.7617C55.5326 57.582 55.1419 58.1875 54.8945 58.5781C54.6471 58.9688 54.2891 59.5417 53.8203 60.2969C53.3516 61.0391 52.987 61.638 52.7266 62.0938C52.0104 63.3047 51.5091 64.2096 51.2227 64.8086C50.9492 65.4076 50.4935 65.707 49.8555 65.707L49.1719 65.6875L48.5859 65.707C47.7786 65.707 47.375 65.3685 47.375 64.6914C47.375 64.1836 47.5898 63.4609 48.0195 62.5234C48.4622 61.5729 50.7799 58.0508 54.9727 51.957C59.1654 45.8503 61.4766 42.5951 61.9062 42.1914C62.3359 41.7747 62.6549 41.5404 62.8633 41.4883C63.0195 41.3711 63.1237 41.3125 63.1758 41.3125L63.5273 41.3711L63.8594 41.3125C63.9766 41.3125 64.0807 41.3646 64.1719 41.4688C64.263 41.5599 64.3281 41.6185 64.3672 41.6445C64.9141 42.0482 65.1875 42.3867 65.1875 42.6602C65.1875 42.9336 65.1159 43.2005 64.9727 43.4609C64.8424 43.7083 64.4714 44.2747 63.8594 45.1602C63.2474 46.0456 62.4401 47.1979 61.4375 48.6172C60.4479 50.0234 59.7318 51.0456 59.2891 51.6836C60.3568 51.6315 61.6393 51.306 63.1367 50.707C64.6341 50.1081 66.0339 49.3919 67.3359 48.5586C68.651 47.7122 69.7708 46.8008 70.6953 45.8242C71.6328 44.8346 72.1016 43.9753 72.1016 43.2461C72.1016 42.8555 71.8997 42.5039 71.4961 42.1914C71.0924 41.8659 70.5846 41.612 69.9727 41.4297C68.7487 41.0651 67.3685 40.8828 65.832 40.8828C64.2956 40.8828 62.349 41.2148 59.9922 41.8789C57.6354 42.543 55.9167 43.181 54.8359 43.793C53.7552 44.3919 52.974 44.9062 52.4922 45.3359C52.0104 45.7526 51.7695 46.0456 51.7695 46.2148C51.7695 46.306 51.8997 46.3516 52.1602 46.3516C52.4336 46.3516 52.6745 46.2865 52.8828 46.1562C53.0911 46.013 53.2148 45.9414 53.2539 45.9414Z" fill="white"/>
<path d="M4 28.9647L48.5 4.56196L93 28.9647V51.7009V75.2492L48.5 97.5268L4 75.2492V51.7009V28.9647Z" stroke="white" stroke-width="8"/>
</g>
<defs>
<clipPath id="clip0_5_3">
<rect width="97" height="102" fill="white"/>
</clipPath>
</defs>
</svg>
