<svg width="44" height="46" viewBox="0 0 44 46" fill="none" xmlns="http://www.w3.org/2000/svg">
<g clip-path="url(#clip0_14_4)">
<path d="M19.1685 21.5935C19.2934 21.5922 19.357 21.6931 19.3592 21.8962C19.3613 22.0941 19.3207 22.4383 19.2374 22.9288C19.1732 23.2576 18.8032 23.7303 18.1275 24.347C17.3124 25.0849 16.4143 25.6153 15.4333 25.9383C14.8416 26.1321 14.2619 26.2321 13.6943 26.2381C13.1318 26.2441 12.6137 26.0126 12.1399 25.5437C11.6713 25.0695 11.4335 24.5069 11.4265 23.8559C11.4195 23.1997 11.5425 22.5213 11.7955 21.8206C12.0536 21.1147 12.4006 20.4417 12.8365 19.8016C13.2775 19.1562 13.797 18.5361 14.3948 17.9411C14.9979 17.3461 15.6252 16.829 16.2768 16.3897C16.9284 15.9504 17.6122 15.5994 18.3282 15.3365C19.0442 15.0736 19.7251 14.9388 20.3709 14.9319C20.8813 14.9264 21.3181 15.1067 21.6814 15.4726C21.871 15.6685 21.9674 15.9175 21.9707 16.2196C21.9738 16.5164 21.832 16.8956 21.5453 17.357C21.2585 17.8132 20.9165 18.2309 20.5195 18.6102C20.1277 18.9894 19.7197 19.3115 19.2954 19.5764C18.8763 19.8413 18.5392 19.9751 18.284 19.9779C18.0288 19.9806 17.8092 19.9048 17.6253 19.7505C17.4413 19.591 17.3486 19.4487 17.3473 19.3237C17.3459 19.1988 17.3705 19.0605 17.421 18.9089C17.4766 18.7572 17.5461 18.681 17.6295 18.6801C17.6089 18.7063 17.5988 18.7325 17.5991 18.7585C17.5997 18.821 17.6886 18.8513 17.8657 18.8494C18.048 18.8475 18.3483 18.6854 18.7668 18.3632C19.1852 18.041 19.5616 17.6802 19.8959 17.2808C20.2354 16.8813 20.4041 16.5827 20.402 16.3847C20.4006 16.2493 20.3087 16.1826 20.1264 16.1845C19.6369 16.1898 18.9623 16.4261 18.1026 16.8937C17.2481 17.3559 16.4315 17.9506 15.6528 18.6777C14.874 19.4048 14.1983 20.2662 13.6255 21.262C13.0579 22.2525 12.7783 23.1409 12.7867 23.9273C12.7902 24.2555 12.879 24.5175 13.053 24.7136C13.2321 24.9096 13.5014 25.0057 13.8608 25.0019C14.2253 24.998 14.6539 24.8893 15.1464 24.6757C15.639 24.4621 16.105 24.2019 16.5444 23.8951C16.9891 23.5882 17.4076 23.2739 17.8001 22.9519C18.1925 22.63 18.5046 22.348 18.7364 22.106C18.9734 21.8638 19.0943 21.7193 19.099 21.6724C19.1036 21.6202 19.1268 21.594 19.1685 21.5935ZM24.1859 18.071C24.264 18.0702 24.3035 18.1141 24.3044 18.2026C24.3048 18.2338 24.2921 18.2626 24.2663 18.2889C23.8335 18.7311 23.3307 18.9552 22.7578 18.9613C22.6224 18.9628 22.4705 18.8889 22.3023 18.7396C22.1339 18.5851 22.0482 18.3621 22.0451 18.0704C22.042 17.7788 22.2156 17.454 22.566 17.0961C22.9163 16.7329 23.4048 16.3892 24.0316 16.0648C24.6636 15.7351 25.4521 15.4402 26.3973 15.1801C27.3425 14.92 28.1927 14.7859 28.9479 14.7779C29.703 14.7698 30.3235 14.8257 30.8091 14.9455C31.2948 15.0601 31.674 15.2071 31.9467 15.3865C32.2246 15.5607 32.4533 15.7588 32.6328 15.9808C32.9336 16.3526 33.0862 16.7338 33.0903 17.1244C33.0944 17.5098 32.9737 17.9096 32.7281 18.3237C32.4825 18.7378 32.1609 19.1084 31.7633 19.4356C31.3709 19.7575 30.9184 20.0592 30.4057 20.3408C29.4477 20.8614 28.4205 21.2474 27.3242 21.4987C27.5137 21.6894 27.9147 22.1695 28.5271 22.9391C29.1447 23.7034 29.7062 24.3432 30.2117 24.8587C30.7225 25.3741 31.1158 25.6304 31.3919 25.6274L31.6487 25.5309C31.706 25.5303 31.7348 25.5534 31.7353 25.6003C31.7358 25.642 31.6408 25.7706 31.4504 25.9862C31.2651 26.1965 31.1028 26.3571 30.9633 26.468C30.8239 26.5788 30.6317 26.6356 30.387 26.6382C30.1474 26.6407 29.8727 26.5265 29.563 26.2954C29.2532 26.0643 28.9137 25.7372 28.5446 25.314C28.1755 24.8908 27.8431 24.4933 27.5475 24.1215C27.2518 23.7444 26.9137 23.3027 26.5333 22.7963C26.1528 22.2847 25.8913 21.9385 25.7487 21.7577C25.6975 21.8416 25.5669 22.0513 25.357 22.3869C25.1469 22.7173 24.9933 22.9611 24.896 23.1184C24.7987 23.2757 24.6579 23.5064 24.4737 23.8105C24.2893 24.1093 24.1461 24.3505 24.0438 24.5339C23.7626 25.0213 23.5659 25.3854 23.4539 25.6262C23.3471 25.8669 23.1661 25.9886 22.9109 25.9913L22.6374 25.9864L22.4031 25.9968C22.0802 26.0002 21.9173 25.8665 21.9144 25.5957C21.9123 25.3926 21.9951 25.1026 22.163 24.7258C22.336 24.3437 23.248 22.9251 24.899 20.4698C26.5499 18.0094 27.4604 16.6975 27.6306 16.5342C27.8007 16.3657 27.9273 16.2706 28.0104 16.2489C28.0724 16.2013 28.1138 16.1775 28.1346 16.1772L28.2755 16.1992L28.408 16.1743C28.4549 16.1738 28.4968 16.1942 28.5337 16.2355C28.5705 16.2716 28.5968 16.2947 28.6126 16.305C28.833 16.4641 28.9438 16.5983 28.945 16.7077C28.9462 16.8171 28.9187 16.9241 28.8625 17.0289C28.8115 17.1284 28.6655 17.3565 28.4245 17.7133C28.1835 18.0701 27.8655 18.5344 27.4705 19.1064C27.0807 19.6731 26.7986 20.0849 26.6243 20.342C27.0511 20.3166 27.5627 20.181 28.1591 19.935C28.7555 19.6891 29.3123 19.3966 29.8295 19.0578C30.3519 18.7136 30.7959 18.3443 31.1615 17.9497C31.5323 17.5499 31.7161 17.2042 31.713 16.9126C31.7113 16.7563 31.6291 16.6166 31.4663 16.4933C31.3035 16.3648 31.0993 16.2654 30.8537 16.1951C30.3626 16.0545 29.8098 15.9875 29.1952 15.994C28.5807 16.0006 27.8035 16.1417 26.8637 16.4174C25.9239 16.693 25.2391 16.9556 24.8095 17.205C24.3797 17.4491 24.0695 17.6582 23.8786 17.8321C23.6877 18.0008 23.5926 18.119 23.5933 18.1867C23.5937 18.2232 23.646 18.2409 23.7501 18.2398C23.8595 18.2386 23.9556 18.2115 24.0383 18.1586C24.1211 18.1004 24.1702 18.0712 24.1859 18.071Z" fill="white"/>
<path d="M1.5 12.885L22 1.70845L42.5 12.885V23.3161V34.1213L22 44.3245L1.5 34.1213V23.3161V12.885Z" stroke="white" stroke-width="3"/>
</g>
<defs>
<clipPath id="clip0_14_4">
<rect width="44" height="46" fill="white"/>
</clipPath>
</defs>
</svg>
